<svg width="64" height="61" viewBox="0 0 64 61" fill="none" xmlns="http://www.w3.org/2000/svg">
<path d="M32.0002 30C22.8002 30 15.3335 20 15.3335 20C15.3335 20 22.8002 10 32.0002 10C41.2002 10 48.6668 20 48.6668 20C48.6668 20 41.2002 30 32.0002 30Z" stroke="#FCD997" stroke-width="1.5" stroke-miterlimit="10" stroke-linecap="round" stroke-linejoin="round"/>
<path d="M32.0002 24.1667C34.3013 24.1667 36.1668 22.3012 36.1668 20C36.1668 17.6989 34.3013 15.8334 32.0002 15.8334C29.699 15.8334 27.8335 17.6989 27.8335 20C27.8335 22.3012 29.699 24.1667 32.0002 24.1667Z" stroke="#FCD997" stroke-width="1.5" stroke-miterlimit="10" stroke-linecap="round" stroke-linejoin="round"/>
<path d="M10.1357 52.4V56.81C10.6257 56.8 11.1257 56.78 11.6357 56.76V52.4H10.1357ZM12.4357 52.4V56.71C12.9257 56.69 13.4157 56.64 13.8857 56.58L13.9357 57.18C12.0057 57.49 9.8457 57.51 8.2157 57.52L8.1257 56.83C8.5057 56.83 8.9157 56.83 9.3457 56.82V52.4H8.3457V51.74H13.4257V52.4H12.4357ZM14.6657 50.78H15.4857V59.74H14.6657V50.78ZM24.5149 55.07V55.74H18.3549V51.59H24.4249V52.27H19.1649V55.07H24.5149ZM17.3149 57.85H25.4549V58.53H17.3149V57.85ZM29.6341 54.86V53.41H27.7041V54.86H29.6341ZM30.4041 51.35V55.52H26.9241V51.35H27.7041V52.76H29.6341V51.35H30.4041ZM28.0641 57.36V56.7H34.0941V59.74H33.2741V57.36H28.0641ZM33.3041 50.78H34.0941V56.15H33.3041V53.78H32.1641V56.11H31.3841V50.94H32.1641V53.11H33.3041V50.78ZM41.5359 52.98V53.68C41.5359 55.12 42.4259 56.59 43.7159 57.21L43.2559 57.85C42.2759 57.37 41.5159 56.39 41.1359 55.24C40.7559 56.47 39.9359 57.51 38.9159 58.01L38.4559 57.39C39.7659 56.75 40.7259 55.23 40.7259 53.68V52.98H38.6959V52.32H40.7159V50.93H41.5359V52.32H43.5259V52.98H41.5359ZM46.9159 54.46V55.14H45.4359V59.74H44.6159V50.77H45.4359V54.46H46.9159ZM54.9351 55.61V56.27H48.7751V51.55H54.8451V52.21H49.6051V53.54H54.6451V54.19H49.6051V55.61H54.9351ZM47.7251 57.91H55.8651V58.58H47.7251V57.91Z" fill="black"/>
</svg>
