<svg width="334" height="335" viewBox="0 0 334 335" fill="none" xmlns="http://www.w3.org/2000/svg">
<path d="M177.464 157.436C255.378 161.99 295.447 164.403 319.836 140.535C338.597 122.175 338.181 91.9749 319.821 73.214C309.294 62.4578 294.755 56.6082 279.773 57.3127C280.801 42.3499 275.267 27.6876 264.006 16.1809C245.646 -2.58002 215.446 -2.16363 196.686 16.1964C173.047 39.3301 174.594 79.4421 177.464 157.436ZM157.171 157.217C161.725 79.3031 164.138 39.2339 140.27 14.8447C121.91 -3.91622 91.7099 -3.49982 72.949 14.8602C62.1928 25.3866 56.3432 39.9261 57.0477 54.9075C42.085 53.8797 27.4226 59.4139 15.9159 70.6747C-2.845 89.0348 -2.42861 119.234 15.9314 137.995C39.0651 161.634 79.1771 160.087 157.171 157.217ZM177.367 177.854C172.691 255.643 170.278 295.712 194.146 320.101C212.506 338.862 242.706 338.446 261.467 320.086C272.223 309.559 278.073 295.02 277.368 280.038C292.331 281.066 306.993 275.532 318.5 264.271C337.261 245.911 336.845 215.711 318.484 196.95C295.351 173.312 255.239 174.859 177.367 177.854ZM156.952 177.51C79.0381 172.956 38.9689 170.543 14.5797 194.411C-4.18121 212.771 -3.7648 242.971 14.5952 261.732C25.1217 272.488 39.6611 278.338 54.6425 277.633C53.6147 292.596 59.1489 307.258 70.4098 318.765C88.7698 337.526 118.97 337.11 137.73 318.749C161.369 295.616 159.822 255.504 156.952 177.51Z" fill="#50DA8C" fill-opacity="0.3"/>
<path d="M177.464 157.436C255.378 161.99 295.447 164.403 319.836 140.535C338.597 122.175 338.181 91.9749 319.821 73.214C309.294 62.4578 294.755 56.6082 279.773 57.3127C280.801 42.3499 275.267 27.6876 264.006 16.1809C245.646 -2.58002 215.446 -2.16363 196.686 16.1964C173.047 39.3301 174.594 79.4421 177.464 157.436ZM157.171 157.217C161.725 79.3031 164.138 39.2339 140.27 14.8447C121.91 -3.91622 91.7099 -3.49982 72.949 14.8602C62.1928 25.3866 56.3432 39.9261 57.0477 54.9075C42.085 53.8797 27.4226 59.4139 15.9159 70.6747C-2.845 89.0348 -2.42861 119.234 15.9314 137.995C39.0651 161.634 79.1771 160.087 157.171 157.217ZM177.367 177.854C172.691 255.643 170.278 295.712 194.146 320.101C212.506 338.862 242.706 338.446 261.467 320.086C272.223 309.559 278.073 295.02 277.368 280.038C292.331 281.066 306.993 275.532 318.5 264.271C337.261 245.911 336.845 215.711 318.484 196.95C295.351 173.312 255.239 174.859 177.367 177.854ZM156.952 177.51C79.0381 172.956 38.9689 170.543 14.5797 194.411C-4.18121 212.771 -3.7648 242.971 14.5952 261.732C25.1217 272.488 39.6611 278.338 54.6425 277.633C53.6147 292.596 59.1489 307.258 70.4098 318.765C88.7698 337.526 118.97 337.11 137.73 318.749C161.369 295.616 159.822 255.504 156.952 177.51Z" fill="#50DA8C" fill-opacity="0.3"/>
</svg>
