<svg width="360" height="73" viewBox="0 0 360 73" fill="none" xmlns="http://www.w3.org/2000/svg">
<rect x="1.5" y="1.5" width="357" height="70" rx="13.5" fill="white"/>
<rect x="1.5" y="1.5" width="357" height="70" rx="13.5" stroke="#E0E5F7" stroke-width="3"/>
<path d="M28.8584 29.9531V42.1348H27.7783V29.9531H28.8584ZM25.4131 31.1152V32.0176H20.71V38.1836C23.0752 38.1836 24.6338 38.1084 26.4521 37.7871L26.5615 38.6895C24.6748 39.0312 23.0752 39.0996 20.6143 39.1133H19.6299V31.1152H25.4131ZM35.0518 33.6855C35.0381 35.6406 36.4463 37.7871 38.21 38.6211L37.5947 39.4688C36.2275 38.8057 35.0723 37.3564 34.5322 35.709C33.9717 37.5 32.748 39.0723 31.3877 39.7695L30.7314 38.9219C32.4814 38.0742 33.9854 35.7637 33.999 33.6855V32.0996H31.1689V31.2109H37.7861V32.0996H35.0518V33.6855ZM40.3428 29.9531V34.875H42.3799V35.791H40.3428V42.1074H39.2764V29.9531H40.3428ZM53.0576 29.9531V42.1348H51.9775V29.9531H53.0576ZM46.5908 30.8965C48.3955 30.9102 49.6943 32.5508 49.6943 35.1348C49.6943 37.7188 48.3955 39.3594 46.5908 39.3594C44.7725 39.3594 43.4873 37.7188 43.4873 35.1348C43.4873 32.5508 44.7725 30.9102 46.5908 30.8965ZM46.5908 31.8535C45.374 31.8672 44.5264 33.1523 44.5264 35.1348C44.5264 37.1172 45.374 38.4023 46.5908 38.4023C47.8076 38.4023 48.6553 37.1172 48.6553 35.1348C48.6553 33.1523 47.8076 31.8672 46.5908 31.8535ZM65.2256 29.9531V42.1348H64.1455V34.8613H60.3584V33.9727H64.1455V29.9531H65.2256ZM56.8857 31.3203V38.2793C58.7383 38.2588 60.3926 38.1631 62.2178 37.7871L62.3545 38.6758C60.4131 39.0723 58.7041 39.1816 56.7354 39.1816H55.8057V31.3203H56.8857ZM71.2139 30.8418C73.1279 30.8418 74.4814 32.0039 74.4814 33.6992C74.4814 35.3945 73.1279 36.5566 71.2139 36.5566C69.2998 36.5566 67.9189 35.3945 67.9326 33.6992C67.9189 32.0039 69.2998 30.8418 71.2139 30.8418ZM71.2139 31.7852C69.915 31.7852 68.9717 32.5645 68.9854 33.6992C68.9717 34.834 69.915 35.6133 71.2139 35.6133C72.499 35.6133 73.4287 34.834 73.4287 33.6992C73.4287 32.5645 72.499 31.7852 71.2139 31.7852ZM77.2021 29.9531V42.1348H76.1357V29.9531H77.2021ZM67.3037 38.5391C69.5459 38.5391 72.6357 38.5254 75.3291 38.1289L75.4111 38.9219C72.6357 39.4414 69.6416 39.4551 67.4541 39.4551L67.3037 38.5391ZM92.8975 29.9531V42.1074H91.8174V29.9531H92.8975ZM90.0947 31.2793V32.168H88.7139V38.0195C89.3975 37.9717 90.0742 37.9102 90.7236 37.8281L90.792 38.6348C88.1396 39.0449 85.2139 39.0859 82.958 39.0996L82.835 38.1836L84.5166 38.1699V32.168H83.1494V31.2793H90.0947ZM85.5693 38.1562C86.2529 38.1426 86.957 38.1152 87.6611 38.0742V32.168H85.5693V38.1562ZM104.765 35.8047V36.6934H96.3701V31.0879H104.642V31.9766H97.4365V35.8047H104.765ZM106.077 39.5508V40.4531H94.9482V39.5508H106.077ZM108.62 30.7324V32.6602H111.327V30.7324H112.339V36.3926H107.608V30.7324H108.62ZM108.62 35.5039H111.327V33.5215H108.62V35.5039ZM117.37 29.9668V37.2539H116.345V34.0137H114.731V37.1855H113.72V30.1992H114.731V33.125H116.345V29.9668H117.37ZM117.37 37.9922V42.1074H116.317V38.8809H109.181V37.9922H117.37Z" fill="black"/>
</svg>
