<svg width="360" height="73" viewBox="0 0 360 73" fill="none" xmlns="http://www.w3.org/2000/svg">
<rect width="360" height="73" rx="15" fill="white"/>
<rect x="1.5" y="1.5" width="357" height="70" rx="13.5" stroke="#EDD0F5" stroke-opacity="0.5" stroke-width="3"/>
<path d="M29.2637 29.9531V42.1074H28.2109V35.75H26.5293V41.5059H25.5039V30.2812H26.5293V34.8613H28.2109V29.9531H29.2637ZM24.123 31.5391C24.1094 34.6289 23.0293 37.5547 19.5293 39.4961L18.9004 38.7441C21.7236 37.1719 22.8926 34.9434 23.0703 32.4277H19.3652V31.5391H24.123ZM32.5586 30.4727V32.2227H36.0996V30.4727H37.166V35.7637H31.5059V30.4727H32.5586ZM32.5586 34.8887H36.0996V33.0566H32.5586V34.8887ZM40.4883 29.9531V32.5918H42.3203V33.4941H40.4883V36.2422H39.4219V29.9531H40.4883ZM40.4883 36.8164V39.7559H33.8164V41.0957H40.9395V41.9707H32.7637V38.9355H39.4219V37.6777H32.7363V36.8164H40.4883ZM47.2012 33.6855C47.1875 35.6406 48.5957 37.7871 50.3594 38.6211L49.7441 39.4688C48.377 38.8057 47.2217 37.3564 46.6816 35.709C46.1211 37.5 44.8975 39.0723 43.5371 39.7695L42.8809 38.9219C44.6309 38.0742 46.1348 35.7637 46.1484 33.6855V32.0996H43.3184V31.2109H49.9355V32.0996H47.2012V33.6855ZM52.4922 29.9531V34.875H54.5293V35.791H52.4922V42.1074H51.4258V29.9531H52.4922ZM59.1641 30.8418C61.0781 30.8418 62.4316 32.0039 62.4316 33.6992C62.4316 35.3945 61.0781 36.5566 59.1641 36.5566C57.25 36.5566 55.8691 35.3945 55.8828 33.6992C55.8691 32.0039 57.25 30.8418 59.1641 30.8418ZM59.1641 31.7852C57.8652 31.7852 56.9219 32.5645 56.9355 33.6992C56.9219 34.834 57.8652 35.6133 59.1641 35.6133C60.4492 35.6133 61.3789 34.834 61.3789 33.6992C61.3789 32.5645 60.4492 31.7852 59.1641 31.7852ZM65.1523 29.9531V42.1348H64.0859V29.9531H65.1523ZM55.2539 38.5391C57.4961 38.5391 60.5859 38.5254 63.2793 38.1289L63.3613 38.9219C60.5859 39.4414 57.5918 39.4551 55.4043 39.4551L55.2539 38.5391ZM80.8477 29.9531V42.1074H79.7676V29.9531H80.8477ZM78.0449 31.2793V32.168H76.6641V38.0195C77.3477 37.9717 78.0244 37.9102 78.6738 37.8281L78.7422 38.6348C76.0898 39.0449 73.1641 39.0859 70.9082 39.0996L70.7852 38.1836L72.4668 38.1699V32.168H71.0996V31.2793H78.0449ZM73.5195 38.1562C74.2031 38.1426 74.9072 38.1152 75.6113 38.0742V32.168H73.5195V38.1562ZM92.7148 35.8047V36.6934H84.3203V31.0879H92.5918V31.9766H85.3867V35.8047H92.7148ZM94.0273 39.5508V40.4531H82.8984V39.5508H94.0273ZM96.5703 30.7324V32.6602H99.2773V30.7324H100.289V36.3926H95.5586V30.7324H96.5703ZM96.5703 35.5039H99.2773V33.5215H96.5703V35.5039ZM105.32 29.9668V37.2539H104.295V34.0137H102.682V37.1855H101.67V30.1992H102.682V33.125H104.295V29.9668H105.32ZM105.32 37.9922V42.1074H104.268V38.8809H97.1309V37.9922H105.32Z" fill="black"/>
</svg>
