<svg width="31" height="29" viewBox="0 0 31 29" fill="none" xmlns="http://www.w3.org/2000/svg">
<path d="M7.625 29C10.0412 29 12 27.0412 12 24.625V21.9118C12 19.9788 13.567 18.4118 15.5 18.4118C17.433 18.4118 19 19.9788 19 21.9118V24.625C19 27.0412 20.9588 29 23.375 29C25.7912 29 27.75 27.0412 27.75 24.625V16.3448C27.75 15.5371 28.4048 14.8824 29.2125 14.8824C30.5498 14.8824 31.1856 13.2357 30.1953 12.3369L18.8603 2.04965C16.9541 0.319674 14.0459 0.319672 12.1397 2.04965L0.804683 12.3369C-0.185621 13.2357 0.450195 14.8824 1.78753 14.8824C2.59523 14.8824 3.25 15.5371 3.25 16.3448V24.625C3.25 27.0412 5.20875 29 7.625 29Z" fill="#C6C6C6"/>
</svg>
