<svg width="295" height="295" viewBox="0 0 295 295" fill="none" xmlns="http://www.w3.org/2000/svg">
<path d="M153.605 141.331C199.982 144.042 223.833 145.478 238.35 131.271C249.517 120.342 249.27 102.366 238.341 91.1988C232.075 84.7963 223.421 81.3144 214.503 81.7337C215.115 72.8273 211.821 64.0997 205.118 57.2505C194.189 46.0833 176.213 46.3312 165.046 57.2598C150.976 71.0298 151.896 94.906 153.605 141.331ZM141.526 141.201C144.236 94.8233 145.673 70.9725 131.465 56.4552C120.537 45.288 102.561 45.5358 91.3936 56.4644C84.9911 62.7301 81.5092 71.3846 81.9285 80.3021C73.0221 79.6903 64.2945 82.9845 57.4453 89.6873C46.2781 100.616 46.526 118.592 57.4545 129.759C71.2246 143.83 95.1008 142.909 141.526 141.201ZM153.547 153.485C150.764 199.787 149.328 223.638 163.535 238.155C174.463 249.323 192.439 249.075 203.607 238.146C210.009 231.88 213.491 223.226 213.072 214.309C221.978 214.92 230.706 211.626 237.555 204.923C248.722 193.995 248.474 176.019 237.546 164.851C223.776 150.781 199.899 151.702 153.547 153.485ZM141.395 153.28C95.018 150.569 71.1673 149.133 56.6499 163.34C45.4827 174.269 45.7306 192.245 56.6592 203.412C62.9249 209.814 71.5793 213.296 80.4969 212.877C79.8851 221.783 83.1792 230.511 89.8821 237.36C100.811 248.527 118.787 248.279 129.954 237.351C144.025 223.581 143.104 199.705 141.395 153.28Z" fill="#50DA8C"/>
<path d="M153.605 141.331C199.982 144.042 223.833 145.478 238.35 131.271C249.517 120.342 249.27 102.366 238.341 91.1988C232.075 84.7963 223.421 81.3144 214.503 81.7337C215.115 72.8273 211.821 64.0997 205.118 57.2505C194.189 46.0833 176.213 46.3312 165.046 57.2598C150.976 71.0298 151.896 94.906 153.605 141.331ZM141.526 141.201C144.236 94.8233 145.673 70.9725 131.465 56.4552C120.537 45.288 102.561 45.5358 91.3936 56.4644C84.9911 62.7301 81.5092 71.3846 81.9285 80.3021C73.0221 79.6903 64.2945 82.9845 57.4453 89.6873C46.2781 100.616 46.526 118.592 57.4545 129.759C71.2246 143.83 95.1008 142.909 141.526 141.201ZM153.547 153.485C150.764 199.787 149.328 223.638 163.535 238.155C174.463 249.323 192.439 249.075 203.607 238.146C210.009 231.88 213.491 223.226 213.072 214.309C221.978 214.92 230.706 211.626 237.555 204.923C248.722 193.995 248.474 176.019 237.546 164.851C223.776 150.781 199.899 151.702 153.547 153.485ZM141.395 153.28C95.018 150.569 71.1673 149.133 56.6499 163.34C45.4827 174.269 45.7306 192.245 56.6592 203.412C62.9249 209.814 71.5793 213.296 80.4969 212.877C79.8851 221.783 83.1792 230.511 89.8821 237.36C100.811 248.527 118.787 248.279 129.954 237.351C144.025 223.581 143.104 199.705 141.395 153.28Z" fill="#50DA8C"/>
<path d="M153.547 153.485C150.764 199.787 149.328 223.638 163.535 238.156C174.464 249.323 192.44 249.075 203.607 238.146C210.009 231.881 213.491 223.226 213.072 214.309C221.978 214.92 230.706 211.626 237.555 204.923C248.722 193.995 248.474 176.019 237.546 164.852C223.776 150.781 199.9 151.702 153.547 153.485Z" fill="#1E2C49" fill-opacity="0.5"/>
</svg>
