<svg width="360" height="73" viewBox="0 0 360 73" fill="none" xmlns="http://www.w3.org/2000/svg">
<rect width="360" height="73" rx="15" fill="white"/>
<rect x="1.5" y="1.5" width="357" height="70" rx="13.5" stroke="#EDD0F5" stroke-opacity="0.5" stroke-width="3"/>
<path d="M28.6289 29.9531V42.1074H27.5488V29.9531H28.6289ZM25.0332 31.2793C25.0195 34.7793 23.3926 37.8691 19.3184 39.8242L18.7305 38.9492C22.0186 37.3906 23.6934 35.0596 23.9395 32.1543H19.291V31.2793H25.0332ZM36.9141 31.0605V31.9629H32.293V34.4785H36.6406V35.3535H32.293V38.293C34.4805 38.293 36.0186 38.2041 37.8438 37.8965L37.9668 38.7852C36.0664 39.0996 34.4668 39.168 32.1699 39.1816H31.2129V31.0605H36.9141ZM40.0859 29.9531V34.8477H42.123V35.7637H40.0859V42.1074H39.0195V29.9531H40.0859ZM50.668 32.209C50.668 33.8496 51.9668 35.3398 53.7852 35.9277L53.2383 36.7617C51.8232 36.2832 50.6953 35.2783 50.1484 33.9863C49.6152 35.374 48.4736 36.4678 47.0312 36.9941L46.4707 36.1602C48.2891 35.5176 49.5879 33.9316 49.5879 32.209V31.6895H46.7441V30.8145H53.4707V31.6895H50.668V32.209ZM56.3281 29.9531V37.3086H55.2617V29.9531H56.3281ZM56.3281 37.9512V42.1074H55.2617V38.8398H48.1523V37.9512H56.3281ZM69.5078 37.0215V37.9102H64.4355V42.1074H63.3828V37.9102H58.3789V37.0215H69.5078ZM68.0586 30.6367V35.3672H59.8145V30.6367H68.0586ZM60.8672 31.5117V34.5195H66.9922V31.5117H60.8672ZM74.4707 30.8418C76.3848 30.8418 77.7383 32.0039 77.7383 33.6992C77.7383 35.3945 76.3848 36.5566 74.4707 36.5566C72.5566 36.5566 71.1758 35.3945 71.1895 33.6992C71.1758 32.0039 72.5566 30.8418 74.4707 30.8418ZM74.4707 31.7852C73.1719 31.7852 72.2285 32.5645 72.2422 33.6992C72.2285 34.834 73.1719 35.6133 74.4707 35.6133C75.7559 35.6133 76.6855 34.834 76.6855 33.6992C76.6855 32.5645 75.7559 31.7852 74.4707 31.7852ZM80.459 29.9531V42.1348H79.3926V29.9531H80.459ZM70.5605 38.5391C72.8027 38.5391 75.8926 38.5254 78.5859 38.1289L78.668 38.9219C75.8926 39.4414 72.8984 39.4551 70.7109 39.4551L70.5605 38.5391ZM96.1543 29.9531V42.1074H95.0742V29.9531H96.1543ZM93.3516 31.2793V32.168H91.9707V38.0195C92.6543 37.9717 93.3311 37.9102 93.9805 37.8281L94.0488 38.6348C91.3965 39.0449 88.4707 39.0859 86.2148 39.0996L86.0918 38.1836L87.7734 38.1699V32.168H86.4062V31.2793H93.3516ZM88.8262 38.1562C89.5098 38.1426 90.2139 38.1152 90.918 38.0742V32.168H88.8262V38.1562ZM108.021 35.8047V36.6934H99.627V31.0879H107.898V31.9766H100.693V35.8047H108.021ZM109.334 39.5508V40.4531H98.2051V39.5508H109.334ZM111.877 30.7324V32.6602H114.584V30.7324H115.596V36.3926H110.865V30.7324H111.877ZM111.877 35.5039H114.584V33.5215H111.877V35.5039ZM120.627 29.9668V37.2539H119.602V34.0137H117.988V37.1855H116.977V30.1992H117.988V33.125H119.602V29.9668H120.627ZM120.627 37.9922V42.1074H119.574V38.8809H112.438V37.9922H120.627Z" fill="black"/>
</svg>
