<svg width="360" height="73" viewBox="0 0 360 73" fill="none" xmlns="http://www.w3.org/2000/svg">
<rect width="360" height="73" rx="15" fill="white"/>
<rect x="1.5" y="1.5" width="357" height="70" rx="13.5" stroke="#EDD0F5" stroke-opacity="0.5" stroke-width="3"/>
<path d="M28.9355 29.9531V42.1074H27.8555V29.9531H28.9355ZM25.3398 31.2793C25.3262 34.7793 23.6992 37.8691 19.625 39.8242L19.0371 38.9492C22.3252 37.3906 24 35.0596 24.2461 32.1543H19.5977V31.2793H25.3398ZM38.6289 31.0742V31.8945H31.4512V31.0742H34.5V29.8848H35.5664V31.0742H38.6289ZM35.0469 32.3594C36.7832 32.3594 37.9453 33.0566 37.959 34.1777C37.9453 35.1689 37.0088 35.8252 35.5664 35.9414V36.748C36.7012 36.7002 37.8496 36.6113 38.916 36.4609L38.998 37.2266C36.332 37.6641 33.3926 37.7051 31.2051 37.7051L31.041 36.8438C32.0732 36.8438 33.2627 36.8369 34.5 36.7891V35.9414C33.0508 35.8184 32.1348 35.1689 32.1484 34.1777C32.1348 33.0566 33.2832 32.3594 35.0469 32.3594ZM35.0469 33.125C33.9121 33.1113 33.1602 33.5215 33.1602 34.1777C33.1602 34.8066 33.9121 35.2168 35.0469 35.2031C36.168 35.2168 36.9199 34.8066 36.9199 34.1777C36.9199 33.5215 36.168 33.1113 35.0469 33.125ZM41.0078 29.9941V38.0879H39.9277V29.9941H41.0078ZM41.0078 38.6621V42.1074H39.9277V39.5234H32.8047V38.6621H41.0078ZM47.2012 33.6855C47.1875 35.6406 48.5957 37.7871 50.3594 38.6211L49.7441 39.4688C48.377 38.8057 47.2217 37.3564 46.6816 35.709C46.1211 37.5 44.8975 39.0723 43.5371 39.7695L42.8809 38.9219C44.6309 38.0742 46.1348 35.7637 46.1484 33.6855V32.0996H43.3184V31.2109H49.9355V32.0996H47.2012V33.6855ZM52.4922 29.9531V34.875H54.5293V35.791H52.4922V42.1074H51.4258V29.9531H52.4922ZM59.1641 30.8418C61.0781 30.8418 62.4316 32.0039 62.4316 33.6992C62.4316 35.3945 61.0781 36.5566 59.1641 36.5566C57.25 36.5566 55.8691 35.3945 55.8828 33.6992C55.8691 32.0039 57.25 30.8418 59.1641 30.8418ZM59.1641 31.7852C57.8652 31.7852 56.9219 32.5645 56.9355 33.6992C56.9219 34.834 57.8652 35.6133 59.1641 35.6133C60.4492 35.6133 61.3789 34.834 61.3789 33.6992C61.3789 32.5645 60.4492 31.7852 59.1641 31.7852ZM65.1523 29.9531V42.1348H64.0859V29.9531H65.1523ZM55.2539 38.5391C57.4961 38.5391 60.5859 38.5254 63.2793 38.1289L63.3613 38.9219C60.5859 39.4414 57.5918 39.4551 55.4043 39.4551L55.2539 38.5391ZM80.8477 29.9531V42.1074H79.7676V29.9531H80.8477ZM78.0449 31.2793V32.168H76.6641V38.0195C77.3477 37.9717 78.0244 37.9102 78.6738 37.8281L78.7422 38.6348C76.0898 39.0449 73.1641 39.0859 70.9082 39.0996L70.7852 38.1836L72.4668 38.1699V32.168H71.0996V31.2793H78.0449ZM73.5195 38.1562C74.2031 38.1426 74.9072 38.1152 75.6113 38.0742V32.168H73.5195V38.1562ZM92.7148 35.8047V36.6934H84.3203V31.0879H92.5918V31.9766H85.3867V35.8047H92.7148ZM94.0273 39.5508V40.4531H82.8984V39.5508H94.0273ZM96.5703 30.7324V32.6602H99.2773V30.7324H100.289V36.3926H95.5586V30.7324H96.5703ZM96.5703 35.5039H99.2773V33.5215H96.5703V35.5039ZM105.32 29.9668V37.2539H104.295V34.0137H102.682V37.1855H101.67V30.1992H102.682V33.125H104.295V29.9668H105.32ZM105.32 37.9922V42.1074H104.268V38.8809H97.1309V37.9922H105.32Z" fill="black"/>
</svg>
