<svg width="36" height="41" viewBox="0 0 36 41" fill="none" xmlns="http://www.w3.org/2000/svg">
<path d="M10 19.36L16.552 26L26.842 15" stroke="black" stroke-width="2" stroke-linecap="round" stroke-linejoin="round"/>
<path d="M17.6936 39.9996C26.7366 36.8826 33.1826 29.6366 34.1936 20.4106C34.4736 16.4056 34.4506 12.3856 34.1226 8.38361C34.0793 7.75289 33.8024 7.16097 33.346 6.72346C32.8896 6.28596 32.2866 6.03429 31.6546 6.01761C27.5636 5.89161 22.8086 5.20961 19.1346 1.59061C18.7506 1.21216 18.2332 1 17.6941 1C17.155 1 16.6375 1.21216 16.2536 1.59061C12.5786 5.20961 7.82358 5.89161 3.73358 6.01761C3.1016 6.03429 2.49853 6.28596 2.04216 6.72346C1.58579 7.16097 1.30891 7.75289 1.26558 8.38361C0.937402 12.385 0.913333 16.4056 1.19358 20.4106C2.20558 29.6366 8.65058 36.8826 17.6936 39.9996Z" stroke="black" stroke-width="2" stroke-linecap="round" stroke-linejoin="round"/>
</svg>
