<svg width="360" height="73" viewBox="0 0 360 73" fill="none" xmlns="http://www.w3.org/2000/svg">
<rect x="1.5" y="1.5" width="357" height="70" rx="13.5" fill="white"/>
<rect x="1.5" y="1.5" width="357" height="70" rx="13.5" stroke="#E0E5F7" stroke-width="3"/>
<path d="M19.2832 41V31.1016H22.6465C24.9707 31.1016 26.0234 32.4824 26.0234 34.2461C26.0234 35.9961 24.9707 37.4043 22.6602 37.4043H20.5137V41H19.2832ZM20.5137 36.3105H22.6055C24.1777 36.3105 24.8066 35.4219 24.8066 34.2461C24.8066 33.0566 24.1777 32.1953 22.5918 32.1953H20.5137V36.3105ZM27.7461 31.1016H29.2227L32.5586 39.25H32.6816L36.0176 31.1016H37.4941V41H36.332V33.5215H36.2363L33.1602 41H32.0664L28.9902 33.5215H28.9082V41H27.7461V31.1016ZM43.0586 30.6367L39.8594 42.4902H38.793L41.9785 30.6367H43.0586ZM44.3574 41V31.1016H47.7207C50.0449 31.1016 51.0977 32.4824 51.0977 34.2461C51.0977 35.9961 50.0449 37.4043 47.7344 37.4043H45.5879V41H44.3574ZM45.5879 36.3105H47.6797C49.252 36.3105 49.8809 35.4219 49.8809 34.2461C49.8809 33.0566 49.252 32.1953 47.666 32.1953H45.5879V36.3105ZM61.1875 36.0508C61.1875 39.1816 59.3418 41.1367 56.8125 41.1367C54.2695 41.1367 52.4375 39.1816 52.4375 36.0508C52.4375 32.9199 54.2695 30.9648 56.8125 30.9648C59.3418 30.9648 61.1875 32.9199 61.1875 36.0508ZM59.998 36.0508C59.998 33.4941 58.6035 32.1133 56.8125 32.1133C55.0215 32.1133 53.627 33.4941 53.627 36.0508C53.627 38.6074 55.0215 39.9883 56.8125 39.9883C58.6035 39.9883 59.998 38.6074 59.998 36.0508ZM66.3691 30.8418C68.2832 30.8418 69.6367 32.0039 69.6367 33.6992C69.6367 35.3945 68.2832 36.5566 66.3691 36.5566C64.4551 36.5566 63.0742 35.3945 63.0879 33.6992C63.0742 32.0039 64.4551 30.8418 66.3691 30.8418ZM66.3691 31.7852C65.0703 31.7852 64.127 32.5645 64.1406 33.6992C64.127 34.834 65.0703 35.6133 66.3691 35.6133C67.6543 35.6133 68.584 34.834 68.584 33.6992C68.584 32.5645 67.6543 31.7852 66.3691 31.7852ZM72.3574 29.9531V42.1348H71.291V29.9531H72.3574ZM62.459 38.5391C64.7012 38.5391 67.791 38.5254 70.4844 38.1289L70.5664 38.9219C67.791 39.4414 64.7969 39.4551 62.6094 39.4551L62.459 38.5391ZM88.0527 29.9531V42.1074H86.9727V29.9531H88.0527ZM85.25 31.2793V32.168H83.8691V38.0195C84.5527 37.9717 85.2295 37.9102 85.8789 37.8281L85.9473 38.6348C83.2949 39.0449 80.3691 39.0859 78.1133 39.0996L77.9902 38.1836L79.6719 38.1699V32.168H78.3047V31.2793H85.25ZM80.7246 38.1562C81.4082 38.1426 82.1123 38.1152 82.8164 38.0742V32.168H80.7246V38.1562ZM99.9199 35.8047V36.6934H91.5254V31.0879H99.7969V31.9766H92.5918V35.8047H99.9199ZM101.232 39.5508V40.4531H90.1035V39.5508H101.232ZM103.775 30.7324V32.6602H106.482V30.7324H107.494V36.3926H102.764V30.7324H103.775ZM103.775 35.5039H106.482V33.5215H103.775V35.5039ZM112.525 29.9668V37.2539H111.5V34.0137H109.887V37.1855H108.875V30.1992H109.887V33.125H111.5V29.9668H112.525ZM112.525 37.9922V42.1074H111.473V38.8809H104.336V37.9922H112.525Z" fill="black"/>
</svg>
