<svg width="327" height="336" viewBox="0 0 327 336" fill="none" xmlns="http://www.w3.org/2000/svg">
<path d="M70.4998 173.5H245.5V223.5C245.5 247.075 245.5 258.85 238.175 266.175C230.85 273.5 219.075 273.5 195.5 273.5H120.5C96.9248 273.5 85.1498 273.5 77.8248 266.175C70.4998 258.85 70.4998 247.075 70.4998 223.5V173.5ZM43.1873 133.688L70.4998 161L120.5 111L90.3623 90.9001C88.209 89.4664 85.6639 88.7362 83.078 88.81C80.4921 88.8839 77.9928 89.7583 75.9248 91.3126L44.5248 114.85C43.0924 115.925 41.9076 117.295 41.0507 118.867C40.1937 120.439 39.6846 122.177 39.5578 123.964C39.4309 125.75 39.6894 127.542 40.3156 129.22C40.9418 130.898 41.9211 132.421 43.1873 133.688ZM272.812 133.688L245.5 161L195.5 111L225.637 90.9001C227.791 89.4664 230.336 88.7362 232.922 88.81C235.508 88.8839 238.007 89.7583 240.075 91.3126L271.475 114.85C272.907 115.925 274.092 117.295 274.949 118.867C275.806 120.439 276.315 122.177 276.442 123.964C276.569 125.75 276.31 127.542 275.684 129.22C275.058 130.898 274.079 132.421 272.812 133.688Z" fill="#50DA8C"/>
<path d="M233 161V173.5H83V161L120.5 123.5H195.5L233 161Z" stroke="#50DA8C" stroke-width="2" stroke-linecap="round"/>
<path d="M10 90H50C52.7575 90 55 92.2425 55 95V140L45 130H10C7.2425 130 5 127.757 5 125V95C5 92.2425 7.2425 90 10 90Z" fill="#F9C7C7"/>
<path d="M49 28H89C91.7575 28 94 30.2425 94 33V78L84 68H49C46.2425 68 44 65.7575 44 63V33C44 30.2425 46.2425 28 49 28Z" fill="#E2E9FF"/>
<path fill-rule="evenodd" clip-rule="evenodd" d="M216.17 106.83L210.5 112.5V102.108C207.375 98.4575 205.5 93.81 205.5 88.75C205.5 77.015 215.575 67.5 228 67.5C240.425 67.5 250.5 77.015 250.5 88.75C250.5 100.485 240.425 110 228 110C223.845 110.013 219.762 108.919 216.17 106.83Z" fill="#F6EED4"/>
<path fill-rule="evenodd" clip-rule="evenodd" d="M138.17 89.83L132.5 95.5V85.1075C129.375 81.4575 127.5 76.81 127.5 71.75C127.5 60.015 137.575 50.5 150 50.5C162.425 50.5 172.5 60.015 172.5 71.75C172.5 83.485 162.425 93 150 93C145.845 93.0133 141.762 91.9191 138.17 89.83Z" fill="#EDD0F5"/>
<path d="M317 83H277C274.242 83 272 85.2425 272 88V133L282 123H317C319.757 123 322 120.757 322 118V88C322 85.2425 319.757 83 317 83Z" fill="#EDD0F5"/>
<path d="M235 5H195C192.242 5 190 7.2425 190 10V55L200 45H235C237.757 45 240 42.7575 240 40V10C240 7.2425 237.757 5 235 5Z" fill="#F9C7C7"/>
</svg>
