<svg width="267" height="320" viewBox="0 0 267 320" fill="none" xmlns="http://www.w3.org/2000/svg">
<g clip-path="url(#clip0_182_6987)">
<path d="M240.387 241.54C243.615 250.409 238.303 260.456 228.515 264.019L115.541 305.138C105.762 308.697 95.2243 304.415 91.9975 295.55L39.3798 150.984C36.1627 142.145 41.4795 132.055 51.2493 128.499L164.224 87.38C174.017 83.8155 184.548 88.1237 187.769 96.9745L240.387 241.54Z" fill="#50DA8C"/>
<path d="M236.27 230.229C239.498 239.097 234.189 249.154 224.401 252.716L111.427 293.835C101.648 297.395 91.1062 293.1 87.8805 284.238L35.2629 139.672C32.0457 130.833 37.3657 120.753 47.1356 117.197L160.11 76.0773C169.903 72.5128 180.432 76.8151 183.652 85.6629L236.27 230.229Z" fill="white"/>
<path d="M65.898 154.375L166.416 117.789C173.173 115.33 169.723 105.851 162.966 108.31L62.4478 144.895C55.6997 147.352 59.1498 156.831 65.898 154.375ZM72.8998 173.612L173.418 137.026C180.174 134.567 176.729 125.1 169.972 127.559L69.4539 164.144C62.7057 166.601 66.1516 176.068 72.8998 173.612ZM80.0597 193.284L180.577 156.698C187.334 154.239 183.889 144.772 177.132 147.231L76.6139 183.816C69.8657 186.272 73.3116 195.74 80.0597 193.284ZM87.0583 212.512L187.576 175.927C194.333 173.467 190.884 163.991 184.127 166.451L83.6093 203.036C76.8611 205.492 80.3102 214.968 87.0583 212.512ZM112.386 282.099L158.636 265.266C165.393 262.806 161.942 253.324 155.185 255.784L108.935 272.617C102.187 275.073 105.638 284.556 112.386 282.099Z" fill="#29506C"/>
</g>
<path d="M174.895 199.787L164.004 204.399C163.81 204.481 163.602 204.524 163.391 204.526C163.181 204.528 162.972 204.488 162.777 204.409C162.582 204.33 162.404 204.213 162.254 204.066C162.104 203.918 161.985 203.742 161.903 203.548C161.819 203.35 161.776 203.138 161.776 202.923C161.776 202.708 161.819 202.496 161.903 202.298L166.515 191.406C167.892 188.155 171.644 186.636 174.895 188.013C178.147 189.39 179.666 193.141 178.289 196.393C177.617 197.98 176.364 199.16 174.895 199.787Z" fill="#2B2622"/>
<path d="M190.105 193.8L169.286 202.226L164.076 197.016L172.502 176.197L190.105 193.8Z" fill="#E5AA6E"/>
<path d="M228.864 123.728L242.574 137.438C243.75 138.614 243.75 140.522 242.574 141.699L190.917 193.356C190.653 193.62 190.295 193.768 189.922 193.768C189.549 193.768 189.192 193.62 188.928 193.356L172.946 177.374C172.682 177.11 172.534 176.753 172.534 176.38C172.534 176.007 172.682 175.649 172.946 175.385L224.603 123.728C225.78 122.551 227.688 122.551 228.864 123.728Z" fill="#FFD469"/>
<path d="M248.085 110.517L255.785 118.217C258.621 121.053 258.621 125.652 255.785 128.488L249.219 135.053C248.956 135.317 248.598 135.465 248.225 135.465C247.852 135.465 247.494 135.317 247.231 135.053L231.249 119.071C230.985 118.808 230.837 118.45 230.837 118.077C230.837 117.704 230.985 117.347 231.249 117.083L237.814 110.517C240.651 107.681 245.249 107.681 248.085 110.517Z" fill="#FF6E83"/>
<path d="M231.667 116.664L249.638 134.635L237.37 146.902L219.4 128.931L231.667 116.664Z" fill="#B9C5C6"/>
<path d="M245.127 139.145L227.157 121.174L228.784 119.547L246.754 137.518L245.127 139.145ZM242.241 142.032L224.27 124.061L222.643 125.688L240.614 143.659L242.241 142.032Z" fill="#96A9B2"/>
<g clip-path="url(#clip1_182_6987)">
<path d="M68.77 52.3205C66.5637 48.4992 67.8769 43.5986 71.6982 41.3923L75.1623 39.3923C78.9836 37.1861 83.8843 38.4992 86.0905 42.3205L86.3155 42.7102C87.678 45.0701 87.7451 47.9614 86.4954 50.3717L83.6208 55.9429C82.7774 57.5797 82.3585 59.4021 82.4025 61.2429C82.4464 63.0837 82.9518 64.884 83.8724 66.4786L83.9662 66.641C85.0724 68.5571 87.5142 69.2114 89.4303 68.1051C91.3463 66.9989 92.0006 64.5571 90.8944 62.641L90.8069 62.4895C90.2944 61.6018 90.274 60.5166 90.7351 59.6153L93.6097 54.0441C96.0967 49.2018 95.9687 43.4301 93.2437 38.7102L93.0187 38.3205C88.6 30.667 78.8158 28.0454 71.1623 32.4641L67.6982 34.4641C60.0447 38.8829 57.423 48.667 61.8418 56.3205C62.948 58.2366 65.3898 58.8909 67.3059 57.7846C69.222 56.6784 69.8762 54.2366 68.77 52.3205ZM97.4303 81.9615C98.5787 81.2985 99.4167 80.2064 99.7599 78.9255C100.103 77.6446 99.9234 76.2798 99.2604 75.1314C98.5973 73.983 97.5052 73.145 96.2243 72.8018C94.9435 72.4586 93.5787 72.6382 92.4303 73.3013C91.2818 73.9643 90.4438 75.0564 90.1006 76.3373C89.7574 77.6182 89.9371 78.983 90.6001 80.1314C91.2632 81.2798 92.3553 82.1178 93.6362 82.461C94.9171 82.8043 96.2818 82.6246 97.4303 81.9615Z" fill="#F9C7C7"/>
</g>
<g clip-path="url(#clip2_182_6987)">
<path d="M19.6405 116.483C16.2968 114.553 15.1478 110.265 17.0783 106.921L18.8283 103.89C20.7588 100.546 25.0468 99.3973 28.3905 101.328L28.7315 101.525C30.7964 102.717 32.1122 104.878 32.2197 107.252L32.4788 112.731C32.5558 114.34 33.0357 115.904 33.8743 117.28C34.713 118.656 35.8836 119.799 37.2788 120.605L37.4209 120.687C39.0975 121.655 41.234 121.082 42.202 119.406C43.17 117.729 42.5975 115.592 40.9209 114.624L40.7883 114.548C40.0116 114.099 39.5214 113.286 39.4765 112.401L39.2173 106.922C38.9835 102.165 36.3613 97.8469 32.2315 95.4625L31.8905 95.2656C25.1937 91.3992 16.6325 93.6932 12.7661 100.39L11.0161 103.421C7.14971 110.118 9.44366 118.679 16.1405 122.545C17.817 123.513 19.9536 122.941 20.9216 121.264C21.8895 119.588 21.317 117.451 19.6405 116.483ZM54.3264 126.406C54.9065 125.401 55.0637 124.206 54.7634 123.086C54.4631 121.965 53.7299 121.009 52.725 120.429C51.7201 119.849 50.5259 119.692 49.4052 119.992C48.2844 120.292 47.3288 121.026 46.7486 122.031C46.1685 123.035 46.0113 124.23 46.3116 125.35C46.6119 126.471 47.3451 127.427 48.35 128.007C49.3549 128.587 50.549 128.744 51.6698 128.444C52.7906 128.144 53.7462 127.41 54.3264 126.406Z" fill="#EDD0F5"/>
</g>
<path d="M155.11 30C155.11 23.3813 160.491 18 167.11 18H173.11C179.729 18 185.11 23.3813 185.11 30V30.675C185.11 34.7625 183.029 38.5687 179.597 40.7625L171.685 45.8438C169.362 47.3375 167.451 49.3906 166.127 51.8148C164.804 54.2391 164.11 56.9568 164.11 59.7188V60C164.11 63.3187 166.791 66 170.11 66C173.429 66 176.11 63.3187 176.11 60V59.7375C176.11 58.2 176.897 56.775 178.172 55.95L186.085 50.8687C192.947 46.4437 197.11 38.85 197.11 30.675V30C197.11 16.7438 186.366 6 173.11 6H167.11C153.854 6 143.11 16.7438 143.11 30C143.11 33.3188 145.791 36 149.11 36C152.429 36 155.11 33.3188 155.11 30ZM170.11 90C172.099 90 174.007 89.2098 175.413 87.8033C176.82 86.3968 177.61 84.4891 177.61 82.5C177.61 80.5109 176.82 78.6032 175.413 77.1967C174.007 75.7902 172.099 75 170.11 75C168.121 75 166.213 75.7902 164.807 77.1967C163.4 78.6032 162.61 80.5109 162.61 82.5C162.61 84.4891 163.4 86.3968 164.807 87.8033C166.213 89.2098 168.121 90 170.11 90Z" fill="#E2E9FF"/>
<g clip-path="url(#clip3_182_6987)">
<path d="M231.053 65.7489C233.889 62.3687 238.943 61.9265 242.323 64.7628L245.388 67.334C248.768 70.1703 249.21 75.2244 246.374 78.6046L246.084 78.9493C244.333 81.0368 241.639 82.0888 238.946 81.7387L232.728 80.943C230.902 80.7103 229.046 80.9399 227.331 81.6108C225.616 82.2817 224.097 83.3724 222.914 84.7828L222.793 84.9265C221.371 86.6214 221.591 89.1396 223.286 90.5618C224.981 91.984 227.499 91.7637 228.922 90.0688L229.034 89.9347C229.693 89.1495 230.706 88.7592 231.71 88.8843L237.929 89.68C243.33 90.3609 248.71 88.2666 252.213 84.0916L252.502 83.7469C258.183 76.977 257.3 66.8862 250.53 61.2056L247.466 58.6345C240.696 52.9538 230.605 53.8366 224.924 60.6066C223.502 62.3014 223.723 64.8197 225.417 66.2419C227.112 67.6641 229.631 67.4437 231.053 65.7489ZM213.002 102.819C214.018 103.671 215.33 104.085 216.651 103.969C217.972 103.854 219.193 103.218 220.046 102.202C220.898 101.186 221.312 99.8736 221.197 98.5525C221.081 97.2315 220.445 96.0105 219.43 95.1581C218.414 94.3057 217.101 93.8917 215.78 94.0073C214.459 94.1229 213.238 94.7585 212.385 95.7744C211.533 96.7902 211.119 98.103 211.235 99.4241C211.35 100.745 211.986 101.966 213.002 102.819Z" fill="#EDD0F5"/>
</g>
<defs>
<clipPath id="clip0_182_6987">
<rect width="200" height="200" fill="white" transform="translate(8.10986 131.404) rotate(-20)"/>
</clipPath>
<clipPath id="clip1_182_6987">
<rect width="40" height="64" fill="white" transform="translate(50.1099 40) rotate(-30)"/>
</clipPath>
<clipPath id="clip2_182_6987">
<rect width="35" height="56" fill="white" transform="translate(0.109863 115.311) rotate(-60)"/>
</clipPath>
<clipPath id="clip3_182_6987">
<rect width="40" height="64" fill="white" transform="translate(236.248 44) rotate(40)"/>
</clipPath>
</defs>
</svg>
