<svg width="64" height="61" viewBox="0 0 64 61" fill="none" xmlns="http://www.w3.org/2000/svg">
<path d="M45.7072 37.3521L34.2404 23.8413C33.3248 24.7604 32.2719 25.4717 31.0817 25.9751C29.8914 26.4786 28.695 26.7303 27.4926 26.7303C24.5603 26.7303 22.0784 25.5343 20.0471 23.1422C18.0157 20.7487 17 17.8252 17 14.3716C17 10.918 18.0145 7.99307 20.0434 5.5967C22.0736 3.1989 24.5542 2 27.4853 2C30.4176 2 32.9006 3.19674 34.9344 5.59023C36.9683 7.98372 37.9852 10.9087 37.9852 14.3651C37.9852 15.864 37.7599 17.3146 37.3095 18.717C36.8578 20.1194 36.2657 21.3191 35.5332 22.3159L47 35.8245L45.7072 37.3521ZM27.4926 24.5706C29.9219 24.5706 31.9734 23.5852 33.6471 21.6147C35.3196 19.6441 36.1558 17.2268 36.1558 14.363C36.1558 11.5006 35.3196 9.08409 33.6471 7.11349C31.9747 5.14289 29.9238 4.15759 27.4944 4.15759C25.0651 4.15759 23.0136 5.14289 21.3399 7.11349C19.6674 9.08409 18.8312 11.5006 18.8312 14.363C18.8312 17.2254 19.6674 19.6419 21.3399 21.6125C23.0123 23.5831 25.0632 24.5706 27.4926 24.5706Z" fill="#B7C8FF"/>
<path d="M10.1357 52.4V56.81C10.6257 56.8 11.1257 56.78 11.6357 56.76V52.4H10.1357ZM12.4357 52.4V56.71C12.9257 56.69 13.4157 56.64 13.8857 56.58L13.9357 57.18C12.0057 57.49 9.8457 57.51 8.2157 57.52L8.1257 56.83C8.5057 56.83 8.9157 56.83 9.3457 56.82V52.4H8.3457V51.74H13.4257V52.4H12.4357ZM14.6657 50.78H15.4857V59.74H14.6657V50.78ZM24.5149 55.07V55.74H18.3549V51.59H24.4249V52.27H19.1649V55.07H24.5149ZM17.3149 57.85H25.4549V58.53H17.3149V57.85ZM29.6341 54.86V53.41H27.7041V54.86H29.6341ZM30.4041 51.35V55.52H26.9241V51.35H27.7041V52.76H29.6341V51.35H30.4041ZM28.0641 57.36V56.7H34.0941V59.74H33.2741V57.36H28.0641ZM33.3041 50.78H34.0941V56.15H33.3041V53.78H32.1641V56.11H31.3841V50.94H32.1641V53.11H33.3041V50.78ZM39.0859 51.34H43.1359C43.1359 53.61 41.5459 55.22 38.9759 55.95L38.6359 55.31C40.7659 54.7 42.0959 53.53 42.2659 52.01H39.0859V51.34ZM40.9359 56.92V58.95H45.1159V56.92H40.9359ZM40.1259 59.61V56.27H45.9259V59.61H40.1259ZM45.0959 50.77H45.9259V55.89H45.0959V53.75H43.1459V53.08H45.0959V50.77ZM52.2251 55.02L51.7851 55.64C50.9551 55.3 50.3351 54.64 50.0151 53.87C49.6951 54.72 49.0551 55.48 48.1851 55.87L47.7451 55.24C48.9151 54.71 49.6151 53.53 49.6151 52.51V51.3H50.4051V52.51C50.4051 53.52 51.0651 54.56 52.2251 55.02ZM49.2751 57.35V56.69H55.3051V59.74H54.4851V57.35H49.2751ZM54.5151 50.78H55.3051V56.2H54.5151V53.78H53.3751V56.14H52.5951V50.93H53.3751V53.11H54.5151V50.78Z" fill="black"/>
</svg>
