<svg width="30" height="30" viewBox="0 0 30 30" fill="none" xmlns="http://www.w3.org/2000/svg">
<path d="M28.7072 30.0037L17.2404 18.5369C16.3248 19.317 15.2719 19.9206 14.0817 20.3479C12.8914 20.7752 11.6951 20.9888 10.4926 20.9888C7.56028 20.9888 5.07844 19.9738 3.04706 17.9436C1.01569 15.9122 0 13.431 0 10.4999C0 7.56882 1.01447 5.08637 3.0434 3.05255C5.07355 1.01752 7.55417 0 10.4853 0C13.4176 0 15.9006 1.01569 17.9344 3.04706C19.9683 5.07844 20.9852 7.56089 20.9852 10.4944C20.9852 11.7665 20.7599 12.9976 20.3095 14.1879C19.8578 15.3781 19.2657 16.3963 18.5332 17.2423L30 28.7072L28.7072 30.0037ZM10.4926 19.1558C12.9219 19.1558 14.9734 18.3196 16.6471 16.6471C18.3196 14.9747 19.1558 12.9232 19.1558 10.4926C19.1558 8.06324 18.3196 6.01233 16.6471 4.33986C14.9747 2.6674 12.9238 1.83117 10.4944 1.83117C8.06507 1.83117 6.01355 2.6674 4.33986 4.33986C2.6674 6.01233 1.83117 8.06324 1.83117 10.4926C1.83117 12.9219 2.6674 14.9728 4.33986 16.6453C6.01233 18.3178 8.06324 19.1558 10.4926 19.1558Z" fill="#B7C8FF"/>
</svg>
