<svg width="25" height="32" viewBox="0 0 25 32" fill="none" xmlns="http://www.w3.org/2000/svg">
<path d="M18.3077 11.3846H21.1923C21.9574 11.3846 22.6911 11.6885 23.232 12.2295C23.773 12.7705 24.0769 13.5042 24.0769 14.2692V28.1154C24.0769 28.8804 23.773 29.6141 23.232 30.1551C22.6911 30.6961 21.9574 31 21.1923 31H3.88462C3.11957 31 2.38585 30.6961 1.84488 30.1551C1.30391 29.6141 1 28.8804 1 28.1154V14.2692C1 13.5042 1.30391 12.7705 1.84488 12.2295C2.38585 11.6885 3.11957 11.3846 3.88462 11.3846H6.76923M18.3077 6.76923L12.5385 1M12.5385 1L6.76923 6.76923M12.5385 1V20.6875" stroke="#ECAFAF" stroke-width="1.5" stroke-linecap="round" stroke-linejoin="round"/>
</svg>
