<svg width="64" height="62" viewBox="0 0 64 62" fill="none" xmlns="http://www.w3.org/2000/svg">
<path opacity="0.55" d="M39.5687 14.8462H43.3531C44.3567 14.8462 45.3193 15.2514 46.029 15.9727C46.7387 16.694 47.1374 17.6722 47.1374 18.6923V37.1538C47.1374 38.1739 46.7387 39.1522 46.029 39.8735C45.3193 40.5948 44.3567 41 43.3531 41H20.6471C19.6435 41 18.6809 40.5948 17.9712 39.8735C17.2615 39.1522 16.8628 38.1739 16.8628 37.1538V18.6923C16.8628 17.6722 17.2615 16.694 17.9712 15.9727C18.6809 15.2514 19.6435 14.8462 20.6471 14.8462H24.4314M39.5687 8.69231L32.0001 1M32.0001 1L24.4314 8.69231M32.0001 1V27.25" stroke="#F18484" stroke-linecap="round" stroke-linejoin="round"/>
<path d="M8.94984 51.74H9.74984V60.78H8.94984V51.74ZM7.42984 55.42H9.16984V56.1H7.42984V55.42ZM6.89984 51.94H7.67984V60.32H6.89984V51.94ZM2.51984 52.83H3.34984V58.05H2.51984V52.83ZM2.51984 57.72H3.09984C4.02984 57.72 5.06984 57.66 6.24984 57.43L6.33984 58.15C5.10984 58.39 4.06984 58.44 3.09984 58.44H2.51984V57.72ZM20.6716 51.74H21.5016V56.42H20.6716V51.74ZM15.6616 56.86H21.5116V59.03H16.4916V60.32H15.6816V58.43H20.6916V57.52H15.6616V56.86ZM15.6816 60.02H21.8116V60.68H15.6816V60.02ZM16.5016 52.54H17.1816V53.01C17.1816 54.61 16.1416 55.93 14.6116 56.44L14.2216 55.79C15.5716 55.35 16.5016 54.24 16.5016 53.01V52.54ZM16.6716 52.54H17.3516V53.01C17.3516 54.16 18.2916 55.2 19.6316 55.61L19.2416 56.25C17.7216 55.78 16.6716 54.53 16.6716 53.01V52.54ZM14.4416 52.25H19.3916V52.92H14.4416V52.25ZM23.2908 56.36H31.4808V57.04H23.2908V56.36ZM27.0308 56.78H27.8608V58.86H27.0308V56.78ZM24.3408 52.16H30.4208V55.34H24.3408V52.16ZM29.6008 52.83H25.1508V54.67H29.6008V52.83ZM24.3308 59.9H30.5708V60.58H24.3308V59.9ZM24.3308 57.99H25.1508V60.14H24.3308V57.99ZM32.49 56.29H40.66V56.97H32.49V56.29ZM36.16 55.08H36.98V56.64H36.16V55.08ZM33.25 52.02H39.89V52.7H33.25V52.02ZM33.29 54.59H39.85V55.27H33.29V54.59ZM34.62 52.32H35.45V55.03H34.62V52.32ZM37.7 52.32H38.52V55.03H37.7V52.32ZM33.49 57.81H39.66V60.66H33.49V57.81ZM38.85 58.47H34.31V59.99H38.85V58.47ZM48.5617 57.44C50.4817 57.44 51.7117 58.07 51.7117 59.11C51.7117 60.14 50.4817 60.76 48.5617 60.76C46.6317 60.76 45.4117 60.14 45.4117 59.11C45.4117 58.07 46.6317 57.44 48.5617 57.44ZM48.5617 58.09C47.1417 58.09 46.2317 58.48 46.2317 59.11C46.2317 59.73 47.1417 60.12 48.5617 60.12C49.9817 60.12 50.8817 59.73 50.8817 59.11C50.8817 58.48 49.9817 58.09 48.5617 58.09ZM45.4817 52.19H51.3017V52.87H45.4817V52.19ZM44.5117 55.95H52.6717V56.62H44.5117V55.95ZM47.8617 54.21H48.6817V56.14H47.8617V54.21ZM50.8217 52.19H51.6317V52.96C51.6317 53.69 51.6317 54.42 51.3917 55.36L50.5717 55.26C50.8217 54.33 50.8217 53.67 50.8217 52.96V52.19ZM55.8009 57.33H56.6509V60.78H55.8009V57.33ZM58.9109 57.33H59.7609V60.78H58.9109V57.33ZM53.7009 56.88H61.9009V57.57H53.7009V56.88ZM57.7809 52.1C59.6709 52.1 60.9409 52.86 60.9409 54.07C60.9409 55.27 59.6709 56.04 57.7809 56.04C55.9009 56.04 54.6209 55.27 54.6209 54.07C54.6209 52.86 55.9009 52.1 57.7809 52.1ZM57.7809 52.77C56.4009 52.77 55.4609 53.28 55.4609 54.07C55.4609 54.86 56.4009 55.37 57.7809 55.37C59.1609 55.37 60.0909 54.86 60.0909 54.07C60.0909 53.28 59.1609 52.77 57.7809 52.77Z" fill="black"/>
</svg>
