<svg width="24" height="26" viewBox="0 0 24 26" fill="none" xmlns="http://www.w3.org/2000/svg">
<path d="M22.3125 5.09375H17.1562V3.6875C17.1562 3.0659 16.9093 2.46976 16.4698 2.03022C16.0302 1.59068 15.4341 1.34375 14.8125 1.34375H9.1875C8.5659 1.34375 7.96976 1.59068 7.53022 2.03022C7.09068 2.46976 6.84375 3.0659 6.84375 3.6875V5.09375H1.6875C1.56318 5.09375 1.44395 5.14314 1.35604 5.23104C1.26814 5.31895 1.21875 5.43818 1.21875 5.5625C1.21875 5.68682 1.26814 5.80605 1.35604 5.89396C1.44395 5.98186 1.56318 6.03125 1.6875 6.03125H3.09375V23.375C3.09375 23.748 3.24191 24.1056 3.50563 24.3694C3.76935 24.6331 4.12704 24.7812 4.5 24.7812H19.5C19.873 24.7812 20.2306 24.6331 20.4944 24.3694C20.7581 24.1056 20.9062 23.748 20.9062 23.375V6.03125H22.3125C22.4368 6.03125 22.556 5.98186 22.644 5.89396C22.7319 5.80605 22.7812 5.68682 22.7812 5.5625C22.7812 5.43818 22.7319 5.31895 22.644 5.23104C22.556 5.14314 22.4368 5.09375 22.3125 5.09375ZM7.78125 3.6875C7.78125 3.31454 7.92941 2.95685 8.19313 2.69313C8.45685 2.42941 8.81454 2.28125 9.1875 2.28125H14.8125C15.1855 2.28125 15.5431 2.42941 15.8069 2.69313C16.0706 2.95685 16.2188 3.31454 16.2188 3.6875V5.09375H7.78125V3.6875ZM19.9688 23.375C19.9688 23.4993 19.9194 23.6185 19.8315 23.7065C19.7435 23.7944 19.6243 23.8438 19.5 23.8438H4.5C4.37568 23.8438 4.25645 23.7944 4.16854 23.7065C4.08064 23.6185 4.03125 23.4993 4.03125 23.375V6.03125H19.9688V23.375ZM9.65625 11.1875V18.6875C9.65625 18.8118 9.60686 18.931 9.51896 19.019C9.43105 19.1069 9.31182 19.1562 9.1875 19.1562C9.06318 19.1562 8.94395 19.1069 8.85604 19.019C8.76814 18.931 8.71875 18.8118 8.71875 18.6875V11.1875C8.71875 11.0632 8.76814 10.944 8.85604 10.856C8.94395 10.7681 9.06318 10.7188 9.1875 10.7188C9.31182 10.7188 9.43105 10.7681 9.51896 10.856C9.60686 10.944 9.65625 11.0632 9.65625 11.1875ZM15.2812 11.1875V18.6875C15.2812 18.8118 15.2319 18.931 15.144 19.019C15.056 19.1069 14.9368 19.1562 14.8125 19.1562C14.6882 19.1562 14.569 19.1069 14.481 19.019C14.3931 18.931 14.3438 18.8118 14.3438 18.6875V11.1875C14.3438 11.0632 14.3931 10.944 14.481 10.856C14.569 10.7681 14.6882 10.7188 14.8125 10.7188C14.9368 10.7188 15.056 10.7681 15.144 10.856C15.2319 10.944 15.2812 11.0632 15.2812 11.1875Z" fill="#E6E6E6" stroke="#1E2C49"/>
</svg>
