<svg width="39" height="42" viewBox="0 0 39 42" fill="none" xmlns="http://www.w3.org/2000/svg">
<path d="M16.4576 31.6947L13.6471 40.221M22.0785 31.6947L24.889 40.221M10.8367 40.221H27.6995M36.1309 1H2.40524C2.03254 1 1.67512 1.17966 1.41158 1.49946C1.14805 1.81926 1 2.253 1 2.70526V29.9895C1 30.4417 1.14805 30.8755 1.41158 31.1953C1.67512 31.5151 2.03254 31.6947 2.40524 31.6947H36.1309C36.5036 31.6947 36.861 31.5151 37.1246 31.1953C37.3881 30.8755 37.5361 30.4417 37.5361 29.9895V2.70526C37.5361 2.253 37.3881 1.81926 37.1246 1.49946C36.861 1.17966 36.5036 1 36.1309 1Z" stroke="black" stroke-width="2" stroke-linecap="round" stroke-linejoin="round"/>
<path d="M12.2421 12.0848L7.32373 17.2006L11.5394 21.4638M26.997 12.9375L31.2127 17.2006L26.2944 22.3164M17.1604 24.0217L21.3761 8.67432" stroke="black" stroke-width="2" stroke-linecap="round" stroke-linejoin="round"/>
</svg>
