<svg width="37" height="45" viewBox="0 0 37 45" fill="none" xmlns="http://www.w3.org/2000/svg">
<path d="M35.7344 11.5628V41.1386C35.7344 41.6989 35.5057 42.2362 35.0985 42.6324C34.6914 43.0286 34.1392 43.2512 33.5635 43.2512H3.1709C2.59514 43.2512 2.04296 43.0286 1.63584 42.6324C1.22872 42.2362 1 41.6989 1 41.1386V3.11256C1 2.55227 1.22872 2.01494 1.63584 1.61875C2.04296 1.22257 2.59514 1 3.1709 1H24.8799M35.7344 11.5628H24.8799V1M35.7344 11.5628L24.8799 1" stroke="black" stroke-width="2" stroke-linecap="round" stroke-linejoin="round"/>
<path d="M18.3672 30.5765C21.3646 30.5765 23.7944 28.2119 23.7944 25.2951C23.7944 22.3782 21.3646 20.0137 18.3672 20.0137C15.3698 20.0137 12.9399 22.3782 12.9399 25.2951C12.9399 28.2119 15.3698 30.5765 18.3672 30.5765Z" stroke="black" stroke-width="2"/>
<path d="M18.3672 16.8442V20.0131M18.3672 30.5759V33.7447M24.6932 18.9568L22.391 21.1972M13.8387 29.5196L11.5365 31.76M11.8545 18.9568L14.1567 21.1972M22.709 29.5196L25.0112 31.76M9.68359 25.2945H12.9399M23.7944 25.2945H27.0508" stroke="black" stroke-width="2" stroke-linecap="round" stroke-linejoin="round"/>
</svg>
