<svg width="41" height="43" viewBox="0 0 41 43" fill="none" xmlns="http://www.w3.org/2000/svg">
<path d="M23.7912 20.4762C27.0383 20.4762 29.6707 17.7428 29.6707 14.3709C29.6707 10.9991 27.0383 8.26562 23.7912 8.26562C20.544 8.26562 17.9116 10.9991 17.9116 14.3709C17.9116 17.7428 20.544 20.4762 23.7912 20.4762Z" stroke="black" stroke-width="2" stroke-linecap="round" stroke-linejoin="round"/>
<path d="M9.3856 8.03654C9.31186 10.0963 9.67975 19.9426 19.3815 23.9872C19.7485 24.1404 20.1902 24.2161 20.631 24.2161C23.2029 24.0638 33.3462 23.9872 36.8006 29.6357C36.8743 29.7123 36.8743 29.788 36.8743 29.8646V33.9092C36.8743 34.1381 36.7277 34.2912 36.5073 34.2912H12.8399C12.6195 34.2912 12.472 34.1381 12.472 33.9092V26.8876C12.472 26.6587 12.3991 26.5065 12.1787 26.4299C10.7088 25.3613 2.69653 19.7903 3.94686 7.95996L9.3856 8.03654Z" stroke="black" stroke-width="2" stroke-linecap="round" stroke-linejoin="round"/>
</svg>
