<svg width="41" height="43" viewBox="0 0 41 43" fill="none" xmlns="http://www.w3.org/2000/svg">
<path d="M0 0V42.2512H40.6889V0H0ZM1.69494 1.80527H38.9926V40.4445H1.69494V1.80527ZM9.83399 9.8958C9.83399 9.77527 10.073 9.68454 10.2116 9.68454C11.668 9.61892 13.1255 9.58821 14.5831 9.59244C19.2852 9.59244 21.1124 12.3362 21.1124 15.8493C21.1124 20.4417 17.987 22.4095 14.1585 22.4095C13.51 22.4095 13.2913 22.3742 12.8411 22.3742V29.315C12.8411 29.4626 12.7877 29.5263 12.6491 29.5263H10.026C9.88739 29.5263 9.83399 29.4694 9.83399 29.3218V9.8958ZM12.8411 19.4896C13.2315 19.518 13.543 19.518 14.2182 19.518C16.198 19.518 18.0659 18.7705 18.0659 15.9143C18.0659 13.6215 16.7282 12.4581 14.4636 12.4581C13.7948 12.4581 13.1527 12.4866 12.8411 12.515V19.4896ZM27.437 17.3376C26.093 17.3376 25.6429 18.0568 25.6429 18.6499C25.6429 19.3054 25.948 19.751 27.7422 20.7383C30.3984 22.1142 31.2389 23.4184 31.2389 25.3577C31.2389 28.2424 29.1663 29.7944 26.3715 29.7944C24.8876 29.7944 23.6237 29.4626 22.8951 29.0184C22.7896 28.9615 22.7629 28.8708 22.7629 28.7218V26.0701C22.7629 25.894 22.843 25.8304 22.9549 25.9225C23.9697 26.6253 25.1547 26.998 26.3651 26.9951C27.7091 26.9951 28.266 26.4019 28.266 25.592C28.266 24.9366 27.8757 24.3718 26.1731 23.4198C23.7623 22.1928 22.7552 20.9441 22.7552 18.8558C22.7552 16.5278 24.4642 14.5952 27.4243 14.5952C28.8815 14.5952 29.9076 14.8349 30.4709 15.0963C30.6095 15.1884 30.6362 15.336 30.6362 15.4565V17.9322C30.6362 18.0798 30.5497 18.1719 30.3844 18.1082C29.6291 17.6356 28.5165 17.3322 27.4306 17.3322L27.437 17.3376Z" fill="black"/>
</svg>
