<svg width="20" height="21" viewBox="0 0 20 21" fill="none" xmlns="http://www.w3.org/2000/svg">
<g clip-path="url(#clip0_1207_6429)">
<path d="M14.3418 7.99977L10.6918 2.53311C10.5335 2.29977 10.2668 2.18311 10.0002 2.18311C9.7335 2.18311 9.46683 2.29977 9.3085 2.54144L5.6585 7.99977H1.66683C1.2085 7.99977 0.833496 8.37477 0.833496 8.83311C0.833496 8.90811 0.841829 8.98311 0.866829 9.05811L2.9835 16.7831C3.17516 17.4831 3.81683 17.9998 4.5835 17.9998H15.4168C16.1835 17.9998 16.8252 17.4831 17.0252 16.7831L19.1418 9.05811L19.1668 8.83311C19.1668 8.37477 18.7918 7.99977 18.3335 7.99977H14.3418ZM7.50016 7.99977L10.0002 4.33311L12.5002 7.99977H7.50016ZM10.0002 14.6664C9.0835 14.6664 8.3335 13.9164 8.3335 12.9998C8.3335 12.0831 9.0835 11.3331 10.0002 11.3331C10.9168 11.3331 11.6668 12.0831 11.6668 12.9998C11.6668 13.9164 10.9168 14.6664 10.0002 14.6664Z" fill="#CBD1E0"/>
</g>
<defs>
<clipPath id="clip0_1207_6429">
<rect width="20" height="20" fill="white" transform="translate(0 0.5)"/>
</clipPath>
</defs>
</svg>
