<svg width="21" height="21" viewBox="0 0 21 21" fill="none" xmlns="http://www.w3.org/2000/svg">
<g clip-path="url(#clip0_1207_6238)">
<path d="M10.5002 5.50016V8.00016L13.8335 4.66683L10.5002 1.3335V3.8335C6.81683 3.8335 3.8335 6.81683 3.8335 10.5002C3.8335 11.8085 4.21683 13.0252 4.86683 14.0502L6.0835 12.8335C5.7085 12.1418 5.50016 11.3418 5.50016 10.5002C5.50016 7.74183 7.74183 5.50016 10.5002 5.50016ZM16.1335 6.95016L14.9168 8.16683C15.2835 8.86683 15.5002 9.6585 15.5002 10.5002C15.5002 13.2585 13.2585 15.5002 10.5002 15.5002V13.0002L7.16683 16.3335L10.5002 19.6668V17.1668C14.1835 17.1668 17.1668 14.1835 17.1668 10.5002C17.1668 9.19183 16.7835 7.97516 16.1335 6.95016V6.95016Z" fill="#C9CFDF"/>
</g>
<defs>
<clipPath id="clip0_1207_6238">
<rect width="20" height="20" fill="white" transform="translate(0.5 0.5)"/>
</clipPath>
</defs>
</svg>
