<svg width="21" height="21" viewBox="0 0 21 21" fill="none" xmlns="http://www.w3.org/2000/svg">
<g clip-path="url(#clip0_1207_4707)">
<path d="M10.5002 4.25C6.3335 4.25 2.77516 6.84167 1.3335 10.5C2.77516 14.1583 6.3335 16.75 10.5002 16.75C14.6668 16.75 18.2252 14.1583 19.6668 10.5C18.2252 6.84167 14.6668 4.25 10.5002 4.25ZM10.5002 14.6667C8.20016 14.6667 6.3335 12.8 6.3335 10.5C6.3335 8.2 8.20016 6.33333 10.5002 6.33333C12.8002 6.33333 14.6668 8.2 14.6668 10.5C14.6668 12.8 12.8002 14.6667 10.5002 14.6667ZM10.5002 8C9.11683 8 8.00016 9.11667 8.00016 10.5C8.00016 11.8833 9.11683 13 10.5002 13C11.8835 13 13.0002 11.8833 13.0002 10.5C13.0002 9.11667 11.8835 8 10.5002 8Z" fill="#C9CFDF"/>
</g>
<defs>
<clipPath id="clip0_1207_4707">
<rect width="20" height="20" fill="white" transform="translate(0.5 0.5)"/>
</clipPath>
</defs>
</svg>
