<svg width="21" height="21" viewBox="0 0 21 21" fill="none" xmlns="http://www.w3.org/2000/svg">
<g clip-path="url(#clip0_1095_4359)">
<path d="M11.3335 7.16683C11.3335 5.32516 9.84183 3.8335 8.00016 3.8335C6.1585 3.8335 4.66683 5.32516 4.66683 7.16683C4.66683 9.0085 6.1585 10.5002 8.00016 10.5002C9.84183 10.5002 11.3335 9.0085 11.3335 7.16683ZM13.0002 8.8335V10.5002H15.5002V13.0002H17.1668V10.5002H19.6668V8.8335H17.1668V6.3335H15.5002V8.8335H13.0002ZM1.3335 15.5002V17.1668H14.6668V15.5002C14.6668 13.2835 10.2252 12.1668 8.00016 12.1668C5.77516 12.1668 1.3335 13.2835 1.3335 15.5002Z" fill="#C9CFDF"/>
</g>
<defs>
<clipPath id="clip0_1095_4359">
<rect width="20" height="20" fill="white" transform="translate(0.5 0.5)"/>
</clipPath>
</defs>
</svg>
