<svg width="21" height="21" viewBox="0 0 21 21" fill="none" xmlns="http://www.w3.org/2000/svg">
<g clip-path="url(#clip0_1207_1532)">
<path d="M13.8335 9.6665C15.2168 9.6665 16.3252 8.54984 16.3252 7.1665C16.3252 5.78317 15.2168 4.6665 13.8335 4.6665C12.4502 4.6665 11.3335 5.78317 11.3335 7.1665C11.3335 8.54984 12.4502 9.6665 13.8335 9.6665ZM7.16683 9.6665C8.55016 9.6665 9.6585 8.54984 9.6585 7.1665C9.6585 5.78317 8.55016 4.6665 7.16683 4.6665C5.7835 4.6665 4.66683 5.78317 4.66683 7.1665C4.66683 8.54984 5.7835 9.6665 7.16683 9.6665ZM7.16683 11.3332C5.22516 11.3332 1.3335 12.3082 1.3335 14.2498V16.3332H13.0002V14.2498C13.0002 12.3082 9.1085 11.3332 7.16683 11.3332ZM13.8335 11.3332C13.5918 11.3332 13.3168 11.3498 13.0252 11.3748C13.9918 12.0748 14.6668 13.0165 14.6668 14.2498V16.3332H19.6668V14.2498C19.6668 12.3082 15.7752 11.3332 13.8335 11.3332Z" fill="#C9CFDF"/>
</g>
<defs>
<clipPath id="clip0_1207_1532">
<rect width="20" height="20" fill="white" transform="translate(0.5 0.5)"/>
</clipPath>
</defs>
</svg>
