<svg width="21" height="21" viewBox="0 0 21 21" fill="none" xmlns="http://www.w3.org/2000/svg">
<g clip-path="url(#clip0_1207_5282)">
<path d="M14.2498 3C12.7998 3 11.4082 3.675 10.4998 4.74167C9.5915 3.675 8.19984 3 6.74984 3C4.18317 3 2.1665 5.01667 2.1665 7.58333C2.1665 10.7333 4.99984 13.3 9.2915 17.2L10.4998 18.2917L11.7082 17.1917C15.9998 13.3 18.8332 10.7333 18.8332 7.58333C18.8332 5.01667 16.8165 3 14.2498 3ZM10.5832 15.9583L10.4998 16.0417L10.4165 15.9583C6.44984 12.3667 3.83317 9.99167 3.83317 7.58333C3.83317 5.91667 5.08317 4.66667 6.74984 4.66667C8.03317 4.66667 9.28317 5.49167 9.72484 6.63333H11.2832C11.7165 5.49167 12.9665 4.66667 14.2498 4.66667C15.9165 4.66667 17.1665 5.91667 17.1665 7.58333C17.1665 9.99167 14.5498 12.3667 10.5832 15.9583Z" fill="#C9CFDF"/>
</g>
<defs>
<clipPath id="clip0_1207_5282">
<rect width="20" height="20" fill="white" transform="translate(0.5 0.5)"/>
</clipPath>
</defs>
</svg>
