<svg width="21" height="21" viewBox="0 0 21 21" fill="none" xmlns="http://www.w3.org/2000/svg">
<g clip-path="url(#clip0_1207_4770)">
<path d="M11.2252 13.0582L9.1085 10.9665L9.1335 10.9415C10.5835 9.32484 11.6168 7.4665 12.2252 5.49984H14.6668V3.83317H8.8335V2.1665H7.16683V3.83317H1.3335V5.4915H10.6418C10.0835 7.09984 9.20016 8.62484 8.00016 9.95817C7.22516 9.09984 6.5835 8.15817 6.07516 7.1665H4.4085C5.01683 8.52484 5.85016 9.80817 6.89183 10.9665L2.65016 15.1498L3.8335 16.3332L8.00016 12.1665L10.5918 14.7582L11.2252 13.0582ZM15.9168 8.83317H14.2502L10.5002 18.8332H12.1668L13.1002 16.3332H17.0585L18.0002 18.8332H19.6668L15.9168 8.83317ZM13.7335 14.6665L15.0835 11.0582L16.4335 14.6665H13.7335V14.6665Z" fill="#C9CFDF"/>
</g>
<defs>
<clipPath id="clip0_1207_4770">
<rect width="20" height="20" fill="white" transform="translate(0.5 0.5)"/>
</clipPath>
</defs>
</svg>
