<svg width="20" height="21" viewBox="0 0 20 21" fill="none" xmlns="http://www.w3.org/2000/svg">
<g clip-path="url(#clip0_1207_4796)">
<path d="M13.7502 5.50016V15.0835C13.7502 16.9252 12.2585 18.4168 10.4168 18.4168C8.57516 18.4168 7.0835 16.9252 7.0835 15.0835V4.66683C7.0835 3.51683 8.01683 2.5835 9.16683 2.5835C10.3168 2.5835 11.2502 3.51683 11.2502 4.66683V13.4168C11.2502 13.8752 10.8752 14.2502 10.4168 14.2502C9.9585 14.2502 9.5835 13.8752 9.5835 13.4168V5.50016H8.3335V13.4168C8.3335 14.5668 9.26683 15.5002 10.4168 15.5002C11.5668 15.5002 12.5002 14.5668 12.5002 13.4168V4.66683C12.5002 2.82516 11.0085 1.3335 9.16683 1.3335C7.32516 1.3335 5.8335 2.82516 5.8335 4.66683V15.0835C5.8335 17.6168 7.8835 19.6668 10.4168 19.6668C12.9502 19.6668 15.0002 17.6168 15.0002 15.0835V5.50016H13.7502Z" fill="#C9CFDF"/>
</g>
<defs>
<clipPath id="clip0_1207_4796">
<rect width="20" height="20" fill="white" transform="translate(0 0.5)"/>
</clipPath>
</defs>
</svg>
