<svg width="20" height="21" viewBox="0 0 20 21" fill="none" xmlns="http://www.w3.org/2000/svg">
<g clip-path="url(#clip0_1095_3566)">
<path d="M3.24984 10.5002C3.24984 9.07516 4.40817 7.91683 5.83317 7.91683H9.1665V6.3335H5.83317C3.53317 6.3335 1.6665 8.20016 1.6665 10.5002C1.6665 12.8002 3.53317 14.6668 5.83317 14.6668H9.1665V13.0835H5.83317C4.40817 13.0835 3.24984 11.9252 3.24984 10.5002ZM6.6665 11.3335H13.3332V9.66683H6.6665V11.3335ZM14.1665 6.3335H10.8332V7.91683H14.1665C15.5915 7.91683 16.7498 9.07516 16.7498 10.5002C16.7498 11.9252 15.5915 13.0835 14.1665 13.0835H10.8332V14.6668H14.1665C16.4665 14.6668 18.3332 12.8002 18.3332 10.5002C18.3332 8.20016 16.4665 6.3335 14.1665 6.3335Z" fill="#C9CFDF"/>
</g>
<defs>
<clipPath id="clip0_1095_3566">
<rect width="20" height="20" fill="white" transform="translate(0 0.5)"/>
</clipPath>
</defs>
</svg>
