<svg width="20" height="20" viewBox="0 0 20 20" fill="none" xmlns="http://www.w3.org/2000/svg">
<g clip-path="url(#clip0_1095_4641)">
<path d="M10.9248 4.7665L10.4498 7.17484C10.3498 7.6665 10.4832 8.17484 10.7998 8.55817C11.1165 8.9415 11.5832 9.1665 12.0832 9.1665H16.6665V10.0665L14.5248 14.9998H7.78317C7.63317 14.9998 7.49984 14.8665 7.49984 14.7165V8.18317L10.9248 4.7665M11.6665 1.6665L6.32484 7.00817C6.00817 7.32484 5.83317 7.74984 5.83317 8.1915V14.7165C5.83317 15.7915 6.70817 16.6665 7.78317 16.6665H14.5332C15.1248 16.6665 15.6665 16.3582 15.9665 15.8582L18.1915 10.7332C18.2832 10.5248 18.3332 10.2998 18.3332 10.0665V9.1665C18.3332 8.24984 17.5832 7.49984 16.6665 7.49984H12.0832L12.8498 3.62484C12.8915 3.4415 12.8665 3.2415 12.7832 3.07484C12.5915 2.69984 12.3498 2.35817 12.0498 2.05817L11.6665 1.6665ZM3.33317 7.49984H1.6665V16.6665H3.33317C3.7915 16.6665 4.1665 16.2915 4.1665 15.8332V8.33317C4.1665 7.87484 3.7915 7.49984 3.33317 7.49984Z" fill="#C9CFDF"/>
</g>
<defs>
<clipPath id="clip0_1095_4641">
<rect width="20" height="20" fill="white"/>
</clipPath>
</defs>
</svg>
