<svg width="20" height="23" viewBox="0 0 20 23" fill="none" xmlns="http://www.w3.org/2000/svg">
<path d="M19.1381 22.8885L11.4936 14.141C10.8832 14.7361 10.1813 15.1966 9.38778 15.5225C8.59427 15.8485 7.7967 16.0115 6.99506 16.0115C5.04018 16.0115 3.38562 15.2371 2.03137 13.6884C0.677125 12.1387 0 10.2459 0 8.00992C0 5.77392 0.67631 3.88017 2.02893 2.32866C3.38237 0.77622 5.03611 0 6.99017 0C8.94504 0 10.6004 0.774823 11.9563 2.32447C13.3122 3.87411 13.9901 5.76787 13.9901 8.00573C13.9901 8.97612 13.84 9.91531 13.5396 10.8233C13.2385 11.7313 12.8438 12.508 12.3555 13.1534L20 21.8995L19.1381 22.8885ZM6.99506 14.6131C8.61462 14.6131 9.9823 13.9752 11.0981 12.6994C12.2131 11.4235 12.7706 9.8585 12.7706 8.00433C12.7706 6.15109 12.2131 4.58654 11.0981 3.31069C9.98311 2.03484 8.61584 1.39692 6.99628 1.39692C5.37671 1.39692 4.00903 2.03484 2.89324 3.31069C1.77827 4.58654 1.22078 6.15109 1.22078 8.00433C1.22078 9.85757 1.77827 11.4221 2.89324 12.698C4.00822 13.9738 5.37549 14.6131 6.99506 14.6131Z" fill="black"/>
</svg>
